<svg width="30" height="30" viewBox="0 0 30 30" fill="none" xmlns="http://www.w3.org/2000/svg">
<path d="M29.5 7.69565C29.5 5.54093 28.7961 3.73178 27.5174 2.4604C26.2391 1.18947 24.4307 0.5 22.3044 0.5H7.69565C5.56925 0.5 3.76089 1.18947 2.48261 2.4604C1.20388 3.73178 0.5 5.54093 0.5 7.69565V22.3044C0.5 24.4591 1.20388 26.2682 2.48261 27.5396C3.76089 28.8105 5.56925 29.5 7.69565 29.5H22.3044C24.4307 29.5 26.2391 28.8105 27.5174 27.5396C28.7961 26.2682 29.5 24.4591 29.5 22.3044V7.69565Z" fill="#E5353E" stroke="white"/>
<path d="M6.72129 9.18096C6.95718 9.22814 7.12699 9.43527 7.12699 9.67583V10.5097H8.76611C8.80592 10.5097 8.83578 10.5461 8.82797 10.5852L8.67187 11.3657C8.62469 11.6016 8.41756 11.7714 8.177 11.7714H7.12699V13.0196H8.90243C8.94224 13.0196 8.9721 13.056 8.96429 13.095L8.80819 13.8756C8.76101 14.1115 8.55388 14.2813 8.31332 14.2813H7.12698V15.687H8.90249C8.9423 15.687 8.97216 15.7235 8.96435 15.7625L8.80825 16.543C8.76107 16.7789 8.55394 16.9487 8.31337 16.9487H7.12698L7.12698 19.1033L14.1779 19.1033C14.2177 19.1033 14.2476 19.1397 14.2398 19.1787L14.0837 19.9592C14.0365 20.1951 13.8294 20.3649 13.5888 20.3649L4.58384 20.3649C4.16576 20.3649 3.82683 20.026 3.82683 19.6079V15.601C3.82683 15.5611 3.86325 15.5313 3.90229 15.5391L4.68282 15.6952C4.91871 15.7424 5.08851 15.9495 5.08851 16.1901V19.0402C5.08851 19.075 5.11676 19.1032 5.1516 19.1032L5.86531 19.1032L5.86531 14.2813H4.42676C4.18619 14.2813 3.97907 14.1115 3.93189 13.8756L3.77578 13.095C3.76798 13.056 3.79783 13.0196 3.83764 13.0196H5.86531V11.7714H4.56302C4.32246 11.7714 4.11533 11.6016 4.06815 11.3657L3.91205 10.5852C3.90424 10.5461 3.9341 10.5097 3.97391 10.5097H5.86531V9.00977L6.72129 9.18096Z" fill="white"/>
<path d="M12.5742 11.2619C12.5742 11.227 12.546 11.1988 12.5111 11.1988H10.1451C9.90452 11.1988 9.6974 11.029 9.65022 10.7931L9.49411 10.0126C9.4863 9.97353 9.51616 9.93711 9.55597 9.93711H13.7728C13.8076 9.93711 13.8359 9.96535 13.8359 10.0002V13.6837C13.8359 14.1018 13.497 14.4407 13.0789 14.4407H10.8589C10.824 14.4407 10.7958 14.4689 10.7958 14.5038V17.8334C10.7958 18.0739 10.626 18.2811 10.3901 18.3282L9.60955 18.4844C9.57052 18.4922 9.5341 18.4623 9.5341 18.4225V13.6837C9.5341 13.4049 9.76004 13.179 10.0388 13.179H12.5111C12.546 13.179 12.5742 13.1508 12.5742 13.1159V11.2619Z" fill="white"/>
<path d="M25.1731 11.5181C25.4149 11.5181 25.6227 11.3465 25.6686 11.1091L25.843 10.2053C25.8506 10.1663 25.8207 10.1302 25.7811 10.1302L22.7322 10.1302C22.4883 10.1302 22.2793 10.3046 22.2357 10.5446L22.0722 11.4437C22.0652 11.4824 22.095 11.5181 22.1343 11.5181L25.1731 11.5181Z" fill="white"/>
<path d="M13.8359 15.269C13.8359 15.2292 13.7995 15.1993 13.7604 15.2071L12.9799 15.3632C12.744 15.4104 12.5742 15.6175 12.5742 15.8581V17.6903C12.5742 17.9241 12.4661 18.1449 12.2813 18.2883L12.1547 18.3865C12.1073 18.4234 12.1333 18.4995 12.1934 18.4995H13.3312C13.6099 18.4995 13.8359 18.2735 13.8359 17.9948V15.269Z" fill="white"/>
<path fill-rule="evenodd" clip-rule="evenodd" d="M21.0084 9.18686C21.2483 9.23049 21.4227 9.43949 21.4227 9.68339V12.5998H25.8013C25.8362 12.5998 25.8644 12.628 25.8644 12.6628V16.1606C25.8644 16.8574 25.2995 17.4223 24.6027 17.4223H18.2426C17.5458 17.4223 16.9809 16.8574 16.9809 16.1606V12.6628C16.9809 12.628 17.0092 12.5998 17.044 12.5998H20.0349V9.08546C20.0349 9.0461 20.0705 9.01635 20.1093 9.02339L21.0084 9.18686ZM18.3688 14.0507C18.3688 14.0158 18.397 13.9876 18.4319 13.9876H24.4135C24.4483 13.9876 24.4766 14.0158 24.4766 14.0507V15.7821C24.4766 15.9215 24.3636 16.0345 24.2242 16.0345H18.6211C18.4818 16.0345 18.3688 15.9215 18.3688 15.7821V14.0507Z" fill="white"/>
<path d="M17.7671 18.4819C17.7671 18.238 17.5926 18.029 17.3527 17.9854L16.4536 17.8219C16.4149 17.8149 16.3792 17.8446 16.3792 17.884V19.8131C16.3792 20.057 16.5536 20.266 16.7936 20.3096L17.6927 20.4731C17.7314 20.4801 17.7671 20.4504 17.7671 20.411V18.4819Z" fill="white"/>
<path d="M20.2446 18.3793C20.4891 18.4187 20.6689 18.6298 20.6689 18.8776V20.4125C20.6689 20.4514 20.6341 20.481 20.5958 20.4748L19.7054 20.3313C19.4609 20.2919 19.2811 20.0808 19.2811 19.833L19.2811 18.2981C19.2811 18.2592 19.3158 18.2296 19.3542 18.2358L20.2446 18.3793Z" fill="white"/>
<path d="M23.5708 18.8776C23.5708 18.6298 23.391 18.4187 23.1464 18.3793L22.256 18.2358C22.2177 18.2296 22.1829 18.2592 22.1829 18.2981L22.1829 19.833C22.1829 20.0808 22.3627 20.2919 22.6073 20.3313L23.4976 20.4748C23.536 20.481 23.5708 20.4514 23.5708 20.4125V18.8776Z" fill="white"/>
<path d="M26.0582 17.9854C26.2982 18.029 26.4726 18.238 26.4726 18.4819V20.411C26.4726 20.4504 26.437 20.4801 26.3983 20.4731L25.4992 20.3096C25.2592 20.266 25.0848 20.057 25.0848 19.8131L25.0848 17.884C25.0848 17.8446 25.1204 17.8149 25.1591 17.8219L26.0582 17.9854Z" fill="white"/>
</svg>
